<mxfile host="Electron" modified="2024-09-16T12:58:54.877Z" agent="Mozilla/5.0 (Windows NT 10.0; Win64; x64) AppleWebKit/537.36 (KHTML, like Gecko) draw.io/21.6.8 Chrome/114.0.5735.289 Electron/25.5.0 Safari/537.36" etag="R8X_xCcUdd96jW2UgAvL" version="21.6.8" type="device">
  <diagram name="Страница — 1" id="akkCx1vuouhBABdRN8rc">
    <mxGraphModel dx="1221" dy="3063" grid="1" gridSize="10" guides="1" tooltips="1" connect="1" arrows="1" fold="1" page="1" pageScale="1" pageWidth="827" pageHeight="1169" math="0" shadow="0">
      <root>
        <mxCell id="0" />
        <mxCell id="1" parent="0" />
        <mxCell id="cxMZwQRQEuilppHJersJ-16" value="" style="edgeStyle=orthogonalEdgeStyle;rounded=0;orthogonalLoop=1;jettySize=auto;html=1;" edge="1" parent="1" source="cxMZwQRQEuilppHJersJ-1" target="cxMZwQRQEuilppHJersJ-3">
          <mxGeometry relative="1" as="geometry" />
        </mxCell>
        <mxCell id="cxMZwQRQEuilppHJersJ-1" value="Среднее время заявки (Заявки)" style="strokeWidth=2;html=1;shape=mxgraph.flowchart.terminator;whiteSpace=wrap;" vertex="1" parent="1">
          <mxGeometry x="380" y="-2320" width="130" height="50" as="geometry" />
        </mxCell>
        <mxCell id="cxMZwQRQEuilppHJersJ-2" value="Время=0&lt;br&gt;Кол-во обслуж=0" style="rounded=0;whiteSpace=wrap;html=1;" vertex="1" parent="1">
          <mxGeometry x="385" y="-2250" width="120" height="60" as="geometry" />
        </mxCell>
        <mxCell id="cxMZwQRQEuilppHJersJ-14" style="edgeStyle=orthogonalEdgeStyle;rounded=0;orthogonalLoop=1;jettySize=auto;html=1;exitX=1;exitY=0.5;exitDx=0;exitDy=0;entryX=0.5;entryY=0;entryDx=0;entryDy=0;" edge="1" parent="1" source="cxMZwQRQEuilppHJersJ-3" target="cxMZwQRQEuilppHJersJ-13">
          <mxGeometry relative="1" as="geometry">
            <Array as="points">
              <mxPoint x="670" y="-2150" />
              <mxPoint x="670" y="-1820" />
              <mxPoint x="440" y="-1820" />
            </Array>
          </mxGeometry>
        </mxCell>
        <mxCell id="cxMZwQRQEuilppHJersJ-17" value="" style="edgeStyle=orthogonalEdgeStyle;rounded=0;orthogonalLoop=1;jettySize=auto;html=1;" edge="1" parent="1" source="cxMZwQRQEuilppHJersJ-3" target="cxMZwQRQEuilppHJersJ-5">
          <mxGeometry relative="1" as="geometry" />
        </mxCell>
        <mxCell id="cxMZwQRQEuilppHJersJ-3" value="i=0; Заявки.Кол-во-1; 1" style="shape=hexagon;perimeter=hexagonPerimeter2;whiteSpace=wrap;html=1;fixedSize=1;" vertex="1" parent="1">
          <mxGeometry x="370" y="-2170" width="150" height="40" as="geometry" />
        </mxCell>
        <mxCell id="cxMZwQRQEuilppHJersJ-4" value="Заявка = Заявки[i]" style="rounded=0;whiteSpace=wrap;html=1;" vertex="1" parent="1">
          <mxGeometry x="390" y="-2110" width="120" height="40" as="geometry" />
        </mxCell>
        <mxCell id="cxMZwQRQEuilppHJersJ-7" value="Да" style="edgeStyle=orthogonalEdgeStyle;rounded=0;orthogonalLoop=1;jettySize=auto;html=1;exitX=1;exitY=0.5;exitDx=0;exitDy=0;entryX=0.5;entryY=0;entryDx=0;entryDy=0;" edge="1" parent="1" source="cxMZwQRQEuilppHJersJ-5" target="cxMZwQRQEuilppHJersJ-6">
          <mxGeometry relative="1" as="geometry" />
        </mxCell>
        <mxCell id="cxMZwQRQEuilppHJersJ-8" value="Нет" style="edgeStyle=orthogonalEdgeStyle;rounded=0;orthogonalLoop=1;jettySize=auto;html=1;" edge="1" parent="1" source="cxMZwQRQEuilppHJersJ-5">
          <mxGeometry relative="1" as="geometry">
            <mxPoint x="440" y="-1860" as="targetPoint" />
            <Array as="points">
              <mxPoint x="350" y="-2010" />
              <mxPoint x="350" y="-1915" />
              <mxPoint x="440" y="-1915" />
            </Array>
          </mxGeometry>
        </mxCell>
        <mxCell id="cxMZwQRQEuilppHJersJ-5" value="Заявка.Статус==&lt;br&gt;&quot;Выполнена&quot;" style="rhombus;whiteSpace=wrap;html=1;" vertex="1" parent="1">
          <mxGeometry x="390" y="-2050" width="120" height="80" as="geometry" />
        </mxCell>
        <mxCell id="cxMZwQRQEuilppHJersJ-9" style="edgeStyle=orthogonalEdgeStyle;rounded=0;orthogonalLoop=1;jettySize=auto;html=1;exitX=0.5;exitY=1;exitDx=0;exitDy=0;" edge="1" parent="1" source="cxMZwQRQEuilppHJersJ-6">
          <mxGeometry relative="1" as="geometry">
            <mxPoint x="440" y="-1870" as="targetPoint" />
          </mxGeometry>
        </mxCell>
        <mxCell id="cxMZwQRQEuilppHJersJ-6" value="&lt;span style=&quot;color: rgb(0, 0, 0); font-family: Helvetica; font-size: 12px; font-style: normal; font-variant-ligatures: normal; font-variant-caps: normal; font-weight: 400; letter-spacing: normal; orphans: 2; text-align: center; text-indent: 0px; text-transform: none; widows: 2; word-spacing: 0px; -webkit-text-stroke-width: 0px; background-color: rgb(251, 251, 251); text-decoration-thickness: initial; text-decoration-style: initial; text-decoration-color: initial; float: none; display: inline !important;&quot;&gt;Время+=Заявка.Время&lt;/span&gt;&lt;br style=&quot;border-color: var(--border-color); color: rgb(0, 0, 0); font-family: Helvetica; font-size: 12px; font-style: normal; font-variant-ligatures: normal; font-variant-caps: normal; font-weight: 400; letter-spacing: normal; orphans: 2; text-align: center; text-indent: 0px; text-transform: none; widows: 2; word-spacing: 0px; -webkit-text-stroke-width: 0px; background-color: rgb(251, 251, 251); text-decoration-thickness: initial; text-decoration-style: initial; text-decoration-color: initial;&quot;&gt;&lt;span style=&quot;color: rgb(0, 0, 0); font-family: Helvetica; font-size: 12px; font-style: normal; font-variant-ligatures: normal; font-variant-caps: normal; font-weight: 400; letter-spacing: normal; orphans: 2; text-align: center; text-indent: 0px; text-transform: none; widows: 2; word-spacing: 0px; -webkit-text-stroke-width: 0px; background-color: rgb(251, 251, 251); text-decoration-thickness: initial; text-decoration-style: initial; text-decoration-color: initial; float: none; display: inline !important;&quot;&gt;Кол-во обслуж++&lt;/span&gt;" style="rounded=0;whiteSpace=wrap;html=1;" vertex="1" parent="1">
          <mxGeometry x="505" y="-1970" width="145" height="50" as="geometry" />
        </mxCell>
        <mxCell id="cxMZwQRQEuilppHJersJ-11" style="edgeStyle=orthogonalEdgeStyle;rounded=0;orthogonalLoop=1;jettySize=auto;html=1;entryX=0;entryY=0.5;entryDx=0;entryDy=0;" edge="1" parent="1" source="cxMZwQRQEuilppHJersJ-10" target="cxMZwQRQEuilppHJersJ-3">
          <mxGeometry relative="1" as="geometry">
            <Array as="points">
              <mxPoint x="310" y="-1850" />
              <mxPoint x="310" y="-2150" />
            </Array>
          </mxGeometry>
        </mxCell>
        <mxCell id="cxMZwQRQEuilppHJersJ-10" value="" style="ellipse;whiteSpace=wrap;html=1;aspect=fixed;" vertex="1" parent="1">
          <mxGeometry x="430" y="-1860" width="20" height="20" as="geometry" />
        </mxCell>
        <mxCell id="cxMZwQRQEuilppHJersJ-18" value="" style="edgeStyle=orthogonalEdgeStyle;rounded=0;orthogonalLoop=1;jettySize=auto;html=1;" edge="1" parent="1" source="cxMZwQRQEuilppHJersJ-13" target="cxMZwQRQEuilppHJersJ-15">
          <mxGeometry relative="1" as="geometry" />
        </mxCell>
        <mxCell id="cxMZwQRQEuilppHJersJ-13" value="Среднее время=Время/Кол-во обслуж" style="rounded=0;whiteSpace=wrap;html=1;" vertex="1" parent="1">
          <mxGeometry x="325" y="-1793" width="230" height="40" as="geometry" />
        </mxCell>
        <mxCell id="cxMZwQRQEuilppHJersJ-15" value="Среднее время" style="strokeWidth=2;html=1;shape=mxgraph.flowchart.terminator;whiteSpace=wrap;" vertex="1" parent="1">
          <mxGeometry x="390" y="-1730" width="100" height="30" as="geometry" />
        </mxCell>
      </root>
    </mxGraphModel>
  </diagram>
</mxfile>
